# xmcd
#
# Track frame offsets:
#  150
#  12224
#  23653
#  35130
#  51599
#  62351
#  76624
#  89880
#  103490
#  121563
#  132856
#
# Disc length: 1944 seconds
#
# Revision: 0
# Processed by: cddbd v1.4PL0 Copyright (c) Steve Scherf et al.
# Submitted via: AltoMP3_Maker 3.0
#
DISCID=8b07960b
DTITLE=Lightnin' Slim - Lightnin' Slim - The Blues Collection
DYEAR=1900
DGENRE=
TTITLE0=rooster blues
TTITLE1=lightnin's bad luck
TTITLE2=g.i. blues
TTITLE3=crazy about you baby
TTITLE4=my babe
TTITLE5=things i used to do
TTITLE6=that's all right
TTITLE7=good morning heartaches
TTITLE8=hoodoo blues
TTITLE9=bad luck blues
TTITLE10=oh baby
EXTD=
EXTT0=
EXTT1=
EXTT2=
EXTT3=
EXTT4=
EXTT5=
EXTT6=
EXTT7=
EXTT8=
EXTT9=
EXTT10=
PLAYORDER=
